<svg id="Capa_1" enable-background="new 0 0 512 512" height="512" viewBox="0 0 512 512" width="512" xmlns="http://www.w3.org/2000/svg"><g><path d="m0 0v512h512v-512zm482 120h-452v-30h232.213l60-60h159.787zm-202.213-90-30 30h-219.787v-30zm-249.787 452v-332h452v332z"/><path d="m341.333 407h30v-46h80.667v-136h-110.667zm30-152h50.667v76h-50.667z"/><path d="m60 407h30v-46h80.667v-136h-110.667zm30-152h50.667v76h-50.667z"/><path d="m281.333 301h-50.666v-76h-30v182h30v-76h50.666v76h30v-182h-30z"/></g></svg>